# xmcd
#
# Track frame offsets:
#	150
#	11130
#	24897
#	39442
#	55792
#	67487
#	79777
#	91902
#	104745
#	116705
#	129592
#	144232
#	156652
#	170447
#
# Disc length: 2472 seconds
#
# Revision: 0
# Processed by: cddbd v1.4PL0 Copyright (c) Steve Scherf et al.
# Submitted via: dBpowerAMP V4.0
#
DISCID=c109a60e
DTITLE=Various Artist - Drop Down Mama
DYEAR=1970
DGENRE=Blues
TTITLE0=Shoe Shine Johnny (Shines) - So Glad I Found You
TTITLE1=Robert Nighthawk - Sweet Black Angel
TTITLE2=Robert Nighthawk - Anna Lee
TTITLE3=Big Boy Spires - One Of These Days
TTITLE4=Honey Boy Edwards - Drop Down Mama
TTITLE5=Floyd Jones - Playhouse
TTITLE6=Big Boy Spires - Murmur Low
TTITLE7=Floyd Jones - You Can't Live Long
TTITLE8=Shoe Shine Johnny (Shines) - Joliet Blues
TTITLE9=Robert Nighthawk - Jackson Town Gal
TTITLE10=Robert Nighthawk - Return Mail Blues
TTITLE11=Blue Smitty and His String Men - Crying
TTITLE12=Blue Smitty and His String Men - Sad Story
TTITLE13=Floyd Jones - Dark Road
EXTD=1990 MCA Re-Issue of a 1970 Chess Records Compilation album.  Music is copyright 1970 but was performed - recorded in the 1940's and 50's
EXTT0=
EXTT1=
EXTT2=
EXTT3=
EXTT4=
EXTT5=
EXTT6=
EXTT7=
EXTT8=
EXTT9=
EXTT10=
EXTT11=
EXTT12=
EXTT13=
PLAYORDER=
